<svg width="220" height="60" viewBox="0 0 220 60" fill="none" xmlns="http://www.w3.org/2000/svg"><g clip-path="url(#clip0_26334_45405)"><path d="M64.709 38.8263L61.8481 33.1046H59.6003V38.8263H55.209V21.7959H63.7394C67.5177 21.7959 69.6655 24.3002 69.6655 27.4655C69.6655 30.4263 67.8525 32.0133 66.2699 32.5742L69.7438 38.8307H64.7133L64.709 38.8263ZM65.1959 27.435C65.1959 26.2872 64.2264 25.622 63.0742 25.622H59.6003V29.2742H63.0742C64.222 29.2742 65.1959 28.635 65.1959 27.435Z" fill="url(#paint0_linear_26334_45405)"/><path d="M71.7051 23.1218C71.7051 21.8697 72.7007 20.874 73.9529 20.874C75.2051 20.874 76.2007 21.8697 76.2007 23.1218C76.2007 24.374 75.2051 25.3958 73.9529 25.3958C72.7007 25.3958 71.7051 24.374 71.7051 23.1218ZM71.9877 38.8305V26.4958H75.9225V38.8305H71.9877Z" fill="url(#paint1_linear_26334_45405)"/><path d="M77.9609 32.6484C77.9609 28.7918 80.8479 26.1875 84.7044 26.1875C87.3609 26.1875 89.0218 27.3614 89.7609 28.4614L87.2088 30.8353C86.7218 30.1223 85.9305 29.6614 84.8827 29.6614C83.2479 29.6614 81.9957 30.7832 81.9957 32.6484C81.9957 34.5136 83.2479 35.6614 84.8827 35.6614C85.9305 35.6614 86.7218 35.1484 87.2088 34.4614L89.7609 36.8614C89.0218 37.9353 87.3609 39.1353 84.7044 39.1353C80.8479 39.1353 77.9609 36.531 77.9609 32.6484Z" fill="url(#paint2_linear_26334_45405)"/><path d="M99.9225 38.8263V31.6481C99.9225 30.1394 99.1312 29.6568 97.879 29.6568C96.7312 29.6568 95.9616 30.2959 95.5051 30.8568V38.8263H91.5703V21.7959H95.5051V28.0002C96.2442 27.1307 97.7007 26.1872 99.7703 26.1872C102.579 26.1872 103.857 27.7698 103.857 30.0437V38.8307H99.9225V38.8263Z" fill="url(#paint3_linear_26334_45405)"/><path d="M113.995 38.8266V37.6005C113.23 38.5179 111.748 39.131 110.165 39.131C108.274 39.131 105.926 37.8527 105.926 35.0701C105.926 32.0832 108.274 31.1136 110.165 31.1136C111.8 31.1136 113.256 31.6223 113.995 32.544V31.0614C113.995 29.9875 113.078 29.2745 111.491 29.2745C110.265 29.2745 108.987 29.7353 107.991 30.5788L106.587 28.1005C108.169 26.7484 110.291 26.1875 112.178 26.1875C115.139 26.1875 117.926 27.2832 117.926 31.1179V38.831H113.991L113.995 38.8266ZM113.995 35.6614V34.5614C113.587 34.0005 112.669 33.6918 111.8 33.6918C110.752 33.6918 109.834 34.1527 109.834 35.1223C109.834 36.0918 110.752 36.5527 111.8 36.5527C112.669 36.5527 113.587 36.244 113.995 35.6614Z" fill="url(#paint4_linear_26334_45405)"/><path d="M120.787 38.8264V26.4916H124.722V28.0003C125.539 27.0046 127.096 26.1611 128.578 26.1611V29.9394C128.348 29.8872 128.018 29.835 127.609 29.835C126.587 29.835 125.235 30.2698 124.722 30.9568V38.822H120.787V38.8264Z" fill="url(#paint5_linear_26334_45405)"/><path d="M138.666 38.8262V37.3958C137.644 38.5697 136.392 39.1306 135.014 39.1306C131.975 39.1306 129.549 36.8306 129.549 32.6436C129.549 28.4567 131.923 26.1828 135.014 26.1828C136.366 26.1828 137.671 26.7175 138.666 27.9436V21.7871H142.575V38.8219H138.666V38.8262ZM138.666 34.5349V30.7567C138.153 30.0915 137.131 29.6567 136.292 29.6567C134.736 29.6567 133.584 30.8045 133.584 32.6436C133.584 34.4828 134.731 35.6567 136.292 35.6567C137.136 35.6567 138.158 35.1958 138.666 34.5349Z" fill="url(#paint6_linear_26334_45405)"/><path d="M145.326 30.3218C145.326 25.0871 149.183 21.5088 154.087 21.5088C157.1 21.5088 159.196 22.9392 160.548 24.8784L158.787 25.874C157.817 24.4175 156.031 23.3957 154.087 23.3957C150.357 23.3957 147.522 26.2305 147.522 30.3175C147.522 34.4044 150.357 37.2392 154.087 37.2392C156.026 37.2392 157.817 36.1914 158.787 34.761L160.574 35.7305C159.144 37.6957 157.1 39.1262 154.087 39.1262C149.183 39.1262 145.326 35.5523 145.326 30.3131V30.3218Z" fill="url(#paint7_linear_26334_45405)"/><path d="M170.917 38.8262V37.4218C169.922 38.5436 168.491 39.1349 166.83 39.1349C164.761 39.1349 162.539 37.7305 162.539 35.0479C162.539 32.3653 164.735 30.9871 166.83 30.9871C168.517 30.9871 169.922 31.5218 170.917 32.6479V30.4262C170.917 28.7914 169.591 27.8479 167.8 27.8479C166.317 27.8479 165.117 28.3566 164.022 29.561L163.126 28.2349C164.452 26.8566 166.039 26.1914 168.056 26.1914C170.687 26.1914 172.835 27.3653 172.835 30.3523V38.8305L170.917 38.8262ZM170.917 36.2218V33.874C170.178 32.8784 168.874 32.3653 167.548 32.3653C165.735 32.3653 164.483 33.4871 164.483 35.0479C164.483 36.6088 165.735 37.7566 167.548 37.7566C168.874 37.7566 170.178 37.2479 170.917 36.2262V36.2218Z" fill="url(#paint8_linear_26334_45405)"/><path d="M175.641 37.1962L176.61 35.8179C177.428 36.7614 178.984 37.5788 180.671 37.5788C182.562 37.5788 183.61 36.6832 183.61 35.4571C183.61 32.4701 175.975 34.3092 175.975 29.7353C175.975 27.7962 177.61 26.1875 180.545 26.1875C182.667 26.1875 184.145 26.9788 185.115 27.9745L184.219 29.3005C183.48 28.4049 182.149 27.744 180.541 27.744C178.932 27.744 177.81 28.5875 177.81 29.6832C177.81 32.3658 185.445 30.6049 185.445 35.4049C185.445 37.4745 183.784 39.1353 180.619 39.1353C178.575 39.1353 176.888 38.4962 175.641 37.1962Z" fill="url(#paint9_linear_26334_45405)"/><path d="M188.23 23.4518C188.23 22.7388 188.817 22.1475 189.535 22.1475C190.252 22.1475 190.813 22.7344 190.813 23.4518C190.813 24.1692 190.252 24.7301 189.535 24.7301C188.817 24.7301 188.23 24.1692 188.23 23.4518ZM188.561 38.8257V26.4909H190.474V38.8257H188.561Z" fill="url(#paint10_linear_26334_45405)"/><path d="M202.66 38.8266V30.7571C202.66 28.5614 201.539 27.8962 199.878 27.8962C198.369 27.8962 196.965 28.8179 196.226 29.8136V38.831H194.312V26.4962H196.226V28.2832C197.095 27.2353 198.778 26.1875 200.643 26.1875C203.195 26.1875 204.552 27.4918 204.552 30.1701V38.8266H202.66Z" fill="url(#paint11_linear_26334_45405)"/><path d="M207.688 32.6484C207.688 29.0745 210.035 26.1875 213.792 26.1875C217.548 26.1875 219.896 29.0745 219.896 32.6484C219.896 36.2223 217.548 39.1353 213.792 39.1353C210.035 39.1353 207.688 36.2223 207.688 32.6484ZM217.879 32.6484C217.879 30.144 216.422 27.8962 213.792 27.8962C211.161 27.8962 209.705 30.144 209.705 32.6484C209.705 35.1527 211.161 37.4223 213.792 37.4223C216.422 37.4223 217.879 35.1745 217.879 32.6484Z" fill="url(#paint12_linear_26334_45405)"/><path fill-rule="evenodd" clip-rule="evenodd" d="M29.0782 8.57826C29.0782 8.09565 28.9869 7.7 28.813 7.30435H28.8217C30.2261 6.86522 31.5478 6.24783 32.7347 5.45652C31.413 8.40435 30.4043 11.2217 29.8304 13.9043C24.1087 12.3652 18.3913 12.3652 12.6739 13.9043C12.0565 11.2174 11.0913 8.36087 9.76953 5.45652C10.9565 6.24783 12.2739 6.86522 13.6826 7.30435C13.5043 7.7 13.4174 8.13913 13.4174 8.57826C13.4174 10.2478 14.8261 11.613 16.4521 11.613C18.0782 11.613 19.4434 10.2478 19.4434 8.57826C19.4434 7.43478 18.8261 6.46522 17.9043 5.93913C19.2261 4.13478 20.3261 2.15652 21.2478 0C22.2174 2.15652 23.2695 4.13478 24.6348 5.93913C23.713 6.46522 23.0956 7.43478 23.0956 8.57826C23.0956 10.2478 24.4608 11.613 26.0869 11.613C27.713 11.613 29.0782 10.2478 29.0782 8.57826ZM35.4564 32.5131C36.5515 32.9933 37.5786 32.4594 38.5863 31.9356C39.8871 31.2595 41.1554 30.6003 42.4955 32.1609C42.7736 30.6674 41.8724 30.1608 40.571 29.4293C40.2244 29.2344 39.8494 29.0236 39.4607 28.774C37.8347 27.7174 36.2477 26.3566 35.4999 25.6522C35.5434 25.0348 35.1912 24.5087 34.3129 24.0696C35.4999 24.1566 36.5129 24.5087 37.3477 25.0392C36.6434 18.8348 27.0086 15.0957 19.1825 15.0957C22.1303 15.8001 24.1955 16.7653 25.2955 18.0001C14.4738 12.9827 3.21291 20.0174 2.24335 26.487C3.739 25.3001 4.66074 24.8174 6.55204 24.287C6.03749 24.7891 5.53454 25.2527 5.05063 25.6988L5.05051 25.6989C2.14477 28.3773 -0.0746711 30.4231 -0.000129529 36.3827C0.969436 34.1827 1.97813 33.0827 3.38683 32.1174C2.15639 43.4218 5.23465 49.3174 14.9999 52.2218C9.1477 48.5261 7.039 44.0827 7.08248 36.7392C7.91726 37.7957 8.84335 38.4087 9.85205 38.8087C10.2042 34.5435 11.9651 31.287 14.8216 28.8218C13.9433 27.2392 13.326 25.6087 13.152 23.9827C15.9694 22.3566 19.9694 22.0479 24.0173 23.0131C27.4042 22.5305 30.2651 23.1435 32.2868 25.387L31.2303 25.4305C32.0216 26.1348 32.726 26.8392 33.2999 27.5435C32.0694 27.1044 30.5303 27.1479 28.8129 27.4131C27.3173 23.0566 21.2477 22.0044 16.6738 24.8609C17.7738 25.2131 18.5216 25.7827 18.9607 26.5783C20.3694 25.9609 21.7781 25.6087 23.2694 25.4783C18.3868 28.2044 15.8347 31.8131 16.1868 35.2435C16.5732 38.8492 19.2505 40.285 21.7816 41.6424C23.2945 42.4538 24.7552 43.2371 25.6434 44.4392C25.6434 42.166 23.9158 40.9097 22.2564 39.7029C21.7322 39.3217 21.2148 38.9454 20.7607 38.5435C19.1347 37.0914 18.6477 34.7609 19.839 33.6609C21.1008 32.4862 22.0774 33.3127 23.389 34.4228C23.4513 34.4755 23.5143 34.5289 23.5781 34.5827C24.6347 35.5044 25.8216 36.1218 28.0651 35.4174C26.6999 36.2087 25.426 37.087 24.2825 38.0566C27.8912 35.9001 31.2781 34.5827 32.552 35.0218C30.4825 35.9914 28.2868 37.3522 26.0868 39.0261C28.4607 37.6609 30.6607 36.5609 32.7303 35.9044C32.7303 35.9044 32.5086 36.3435 32.2912 36.9609C30.7955 37.6653 29.3434 38.7218 27.8912 39.9957C29.3434 39.0261 30.752 38.1914 32.026 37.7087C31.5434 39.1609 31.1042 41.0522 32.1129 41.2261C32.6284 41.3232 33.0845 41.0133 33.695 40.5985C34.7526 39.8798 36.2736 38.8463 39.3694 39.0696C41.1738 37.574 41.6129 35.5957 40.5999 34.274C40.1233 33.6521 39.2386 33.5962 38.3028 33.5369C37.2493 33.4703 36.131 33.3995 35.4564 32.5131ZM13.3297 33.3481C10.821 38.0568 12.4514 42.0568 15.8384 44.4351C13.5949 44.3046 12.2297 43.7307 10.4297 41.222C10.4297 45.0847 12.3973 47.1974 14.3044 49.2452C15.482 50.5097 16.6366 51.7494 17.2906 53.3611C16.1471 53.4046 15.134 53.5829 14.1688 54.2829C18.5688 54.8568 22.2645 57.6264 23.8036 60.0003C23.9775 56.4829 22.4819 51.509 19.9775 49.3568C20.6904 49.7612 21.332 50.1065 21.9146 50.42C25.3218 52.2539 26.7078 52.9999 28.5123 58.109C28.4675 50.5225 23.9565 47.2846 19.8425 44.3316C15.966 41.5493 12.4419 39.0198 13.3384 33.3438L13.3297 33.3481ZM32.5957 42.2309C34.8827 41.3092 37.7435 40.5179 39.3696 41.3527V41.357C40.7783 42.0614 41.9653 45.2701 37.9609 48.2179C38.0479 47.9527 38.0914 47.6005 38.1348 47.2483C37.1696 48.3483 35.8044 49.1831 33.8261 49.6222C35.8957 48.2135 36.3783 46.544 35.9392 44.6961C33.7392 45.2657 32.7696 44.2092 32.5957 42.2309ZM41.9645 35.2393C42.2732 36.6045 42.1863 37.8784 41.5254 38.9784C43.7254 39.5523 43.195 36.3827 41.9645 35.2393Z" fill="url(#paint13_linear_26334_45405)"/></g><defs><linearGradient id="paint0_linear_26334_45405" x1="46.1006" y1="12.5739" x2="138.848" y2="123.109" gradientUnits="userSpaceOnUse"><stop stop-color="#C58B2C"/><stop offset="0.47" stop-color="#F0E096"/><stop offset="1" stop-color="#C99336"/></linearGradient><linearGradient id="paint1_linear_26334_45405" x1="51.7497" y1="3.93393" x2="150.298" y2="121.377" gradientUnits="userSpaceOnUse"><stop stop-color="#C58B2C"/><stop offset="0.47" stop-color="#F0E096"/><stop offset="1" stop-color="#C99336"/></linearGradient><linearGradient id="paint2_linear_26334_45405" x1="57.9345" y1="0.874761" x2="150.1" y2="110.71" gradientUnits="userSpaceOnUse"><stop stop-color="#C58B2C"/><stop offset="0.47" stop-color="#F0E096"/><stop offset="1" stop-color="#C99336"/></linearGradient><linearGradient id="paint3_linear_26334_45405" x1="63.9086" y1="-6.65993" x2="157.47" y2="104.84" gradientUnits="userSpaceOnUse"><stop stop-color="#C58B2C"/><stop offset="0.47" stop-color="#F0E096"/><stop offset="1" stop-color="#C99336"/></linearGradient><linearGradient id="paint4_linear_26334_45405" x1="72.7479" y1="-13.8476" x2="164.452" y2="95.4394" gradientUnits="userSpaceOnUse"><stop stop-color="#C58B2C"/><stop offset="0.47" stop-color="#F0E096"/><stop offset="1" stop-color="#C99336"/></linearGradient><linearGradient id="paint5_linear_26334_45405" x1="77.2924" y1="-23.9832" x2="174.366" y2="91.7039" gradientUnits="userSpaceOnUse"><stop stop-color="#C58B2C"/><stop offset="0.47" stop-color="#F0E096"/><stop offset="1" stop-color="#C99336"/></linearGradient><linearGradient id="paint6_linear_26334_45405" x1="87.5976" y1="-29.0826" x2="179.65" y2="80.6218" gradientUnits="userSpaceOnUse"><stop stop-color="#C58B2C"/><stop offset="0.47" stop-color="#F0E096"/><stop offset="1" stop-color="#C99336"/></linearGradient><linearGradient id="paint7_linear_26334_45405" x1="95.8413" y1="-38.7756" x2="188.576" y2="71.7418" gradientUnits="userSpaceOnUse"><stop stop-color="#C58B2C"/><stop offset="0.47" stop-color="#F0E096"/><stop offset="1" stop-color="#C99336"/></linearGradient><linearGradient id="paint8_linear_26334_45405" x1="102.261" y1="-45.3434" x2="194.943" y2="65.1087" gradientUnits="userSpaceOnUse"><stop stop-color="#C58B2C"/><stop offset="0.47" stop-color="#F0E096"/><stop offset="1" stop-color="#C99336"/></linearGradient><linearGradient id="paint9_linear_26334_45405" x1="108.257" y1="-53.3635" x2="201.961" y2="58.3103" gradientUnits="userSpaceOnUse"><stop stop-color="#C58B2C"/><stop offset="0.47" stop-color="#F0E096"/><stop offset="1" stop-color="#C99336"/></linearGradient><linearGradient id="paint10_linear_26334_45405" x1="108.973" y1="-65.2949" x2="208.873" y2="53.7616" gradientUnits="userSpaceOnUse"><stop stop-color="#C58B2C"/><stop offset="0.47" stop-color="#F0E096"/><stop offset="1" stop-color="#C99336"/></linearGradient><linearGradient id="paint11_linear_26334_45405" x1="118.591" y1="-62.7519" x2="211.474" y2="47.9394" gradientUnits="userSpaceOnUse"><stop stop-color="#C58B2C"/><stop offset="0.47" stop-color="#F0E096"/><stop offset="1" stop-color="#C99336"/></linearGradient><linearGradient id="paint12_linear_26334_45405" x1="126.754" y1="-71.0741" x2="219.601" y2="39.5781" gradientUnits="userSpaceOnUse"><stop stop-color="#C58B2C"/><stop offset="0.47" stop-color="#F0E096"/><stop offset="1" stop-color="#C99336"/></linearGradient><linearGradient id="paint13_linear_26334_45405" x1="10.4504" y1="-4.92317" x2="49.4269" y2="41.5264" gradientUnits="userSpaceOnUse"><stop stop-color="#C58B2C"/><stop offset="0.47" stop-color="#F0E096"/><stop offset="1" stop-color="#C99336"/></linearGradient><clipPath id="clip0_26334_45405"><rect width="220" height="60" fill="white"/></clipPath></defs></svg>